{"scene":0,"scenes":[{"nodes":[0]}],"asset":{"version":"2.0","generator":"https://github.com/mikedh/trimesh"},"accessors":[{"componentType":5125,"type":"SCALAR","bufferView":0,"count":7296,"max":[1219],"min":[0]},{"componentType":5126,"type":"VEC3","byteOffset":0,"bufferView":1,"count":1220,"max":[1.7999999523162842,3.799999952316284,2.0],"min":[-1.7999999523162842,-1.0,-1.0]},{"componentType":5121,"normalized":true,"type":"VEC4","byteOffset":0,"bufferView":2,"count":1220,"max":[254,254,254,255],"min":[0,0,0,255]}],"meshes":[{"name":"geometry_0","extras":{"shape":"radius"},"primitives":[{"attributes":{"POSITION":1,"COLOR_0":2},"indices":0,"mode":4}]}],"nodes":[{"name":"world","children":[1]},{"name":"geometry_0","mesh":0}],"buffers":[{"uri":"gltf_buffer_0.bin","byteLength":29184},{"uri":"gltf_buffer_1.bin","byteLength":14640},{"uri":"gltf_buffer_2.bin","byteLength":4880}],"bufferViews":[{"buffer":0,"byteOffset":0,"byteLength":29184},{"buffer":1,"byteOffset":0,"byteLength":14640},{"buffer":2,"byteOffset":0,"byteLength":4880}]}